<?xml version="1.0" encoding="UTF-8" standalone="no"?>
<!-- Created with Inkscape (http://www.inkscape.org/) -->

<svg
   xmlns:dc="http://purl.org/dc/elements/1.1/"
   xmlns:cc="http://creativecommons.org/ns#"
   xmlns:rdf="http://www.w3.org/1999/02/22-rdf-syntax-ns#"
   xmlns:svg="http://www.w3.org/2000/svg"
   xmlns="http://www.w3.org/2000/svg"
   xmlns:sodipodi="http://sodipodi.sourceforge.net/DTD/sodipodi-0.dtd"
   xmlns:inkscape="http://www.inkscape.org/namespaces/inkscape"
   width="750.00702"
   height="450.47"
   viewBox="0 0 703.1316 422.31563"
   id="svg2"
   version="1.1"
   inkscape:version="0.92.1 r15371"
   sodipodi:docname="logo.svg">
  <defs
     id="defs4" />
  <sodipodi:namedview
     id="base"
     pagecolor="#ffffff"
     bordercolor="#666666"
     borderopacity="1.0"
     inkscape:pageopacity="0.0"
     inkscape:pageshadow="2"
     inkscape:zoom="1"
     inkscape:cx="590.77729"
     inkscape:cy="199.72222"
     inkscape:document-units="px"
     inkscape:current-layer="layer1"
     showgrid="false"
     inkscape:window-width="1366"
     inkscape:window-height="705"
     inkscape:window-x="-8"
     inkscape:window-y="-8"
     inkscape:window-maximized="1"
     units="px"
     inkscape:lockguides="false"
     inkscape:measure-start="0,0"
     inkscape:measure-end="0,0" />
  <metadata
     id="metadata7">
    <rdf:RDF>
      <cc:Work
         rdf:about="">
        <dc:format>image/svg+xml</dc:format>
        <dc:type
           rdf:resource="http://purl.org/dc/dcmitype/StillImage" />
        <dc:title></dc:title>
      </cc:Work>
    </rdf:RDF>
  </metadata>
  <g
     inkscape:label="Layer 1"
     inkscape:groupmode="layer"
     id="layer1"
     transform="translate(0,-630.04647)">
    <g
       id="layer1-0"
       inkscape:label="Layer 1"
       transform="matrix(0.93187301,0,0,0.9078215,26.275056,114.71951)">
      <g
         id="g4192">
        <g
           id="layer1-7"
           inkscape:label="Layer 1"
           transform="matrix(1.3063643,0,0,1.3063643,-100.2967,-80.804101)">
          <path
             inkscape:export-ydpi="90"
             inkscape:export-xdpi="90"
             sodipodi:nodetypes="cccc"
             inkscape:connector-curvature="0"
             id="path4147"
             d="M 521.49882,851.2627 C 551.4275,789.44847 595.07027,745.76348 631.87411,693.0378 l -118.8657,140.7656 z"
             style="opacity:1;fill:#6d3129;fill-opacity:1;fill-rule:evenodd;stroke:#000000;stroke-width:1.06533384px;stroke-linecap:butt;stroke-linejoin:miter;stroke-opacity:1" />
          <path
             inkscape:export-ydpi="90"
             inkscape:export-xdpi="90"
             sodipodi:nodetypes="csscscc"
             inkscape:connector-curvature="0"
             id="path4149"
             d="M 521.40763,850.82173 C 489.80126,842.17211 441.72727,832.7709 401.6026,828.3134 c -81.67901,-9.07382 -148.95339,0.83471 -148.85169,-34.45561 0.0369,-12.79644 0.78951,-19.40897 25.35382,-35.79513 -26.82463,54.82881 0.12928,59.42673 67.25618,59.15775 58.58039,-0.23474 130.44525,7.87585 167.41652,15.46874 z"
             style="opacity:1;fill:#6d3129;fill-opacity:1;fill-rule:evenodd;stroke:#000000;stroke-width:1.06533384px;stroke-linecap:butt;stroke-linejoin:miter;stroke-opacity:1" />
          <path
             inkscape:export-ydpi="90"
             inkscape:export-xdpi="90"
             sodipodi:nodetypes="ccccc"
             inkscape:connector-curvature="0"
             id="path4151"
             d="M 501.89587,821.11514 602.45658,701.13145 c -12.44921,-16.96062 -6.40158,-28.28729 0.75046,-38.19416 -29.56804,20.90019 -74.3672,73.19296 -91.9996,95.76924 -36.39372,15.63185 -19.27189,50.76732 -9.31157,62.40861 z"
             style="opacity:1;fill:#f7e7da;fill-opacity:1;fill-rule:evenodd;stroke:#000000;stroke-width:1.06533384px;stroke-linecap:butt;stroke-linejoin:miter;stroke-opacity:1" />
          <path
             inkscape:export-ydpi="90"
             inkscape:export-xdpi="90"
             sodipodi:nodetypes="cccscsccc"
             inkscape:connector-curvature="0"
             id="path4153"
             d="m 595.89562,687.46867 35.82861,3.632 -118.57158,141.97428 c -34.58755,-6.83555 -92.08522,-14.83108 -139.7452,-15.63031 -76.53345,-1.28342 -131.14241,3.49351 -93.78294,-60.08337 -19.22643,47.41882 36.95884,46.12963 103.40632,50.58968 49.3775,3.31428 92.58564,4.99346 120.36594,12.77841 l 100.5607,-120.36949 c 0,0 -7.372,-7.71053 -8.06185,-12.8912 z"
             style="opacity:1;fill:#c9cacf;fill-opacity:1;fill-rule:evenodd;stroke:#000000;stroke-width:1.06533384px;stroke-linecap:butt;stroke-linejoin:miter;stroke-opacity:1" />
          <path
             inkscape:export-ydpi="90"
             inkscape:export-xdpi="90"
             sodipodi:nodetypes="ccccc"
             inkscape:connector-curvature="0"
             id="path4157"
             d="m 292.24079,750.01503 222.60038,7.82899 c -24.40839,7.5954 -31.49882,39.43165 -10.86271,62.43334 -55.7607,-11.92101 -176.44432,-13.39424 -206.76869,-21.92438 -17.34811,-2.49977 -35.42533,-34.45217 -4.96898,-48.33795 z"
             style="opacity:1;fill:#caae90;fill-opacity:1;fill-rule:evenodd;stroke:#000000;stroke-width:1.06533384px;stroke-linecap:butt;stroke-linejoin:miter;stroke-opacity:1" />
          <path
             inkscape:export-ydpi="90"
             inkscape:export-xdpi="90"
             sodipodi:nodetypes="cccc"
             inkscape:connector-curvature="0"
             id="path4181"
             d="m 292.51945,749.35642 221.00842,8.48759 c 0,0 41.42777,-61.26214 90.05438,-94.52092 -217.8215,23.75892 -254.06269,55.34345 -311.0628,86.03333 z"
             style="opacity:1;fill:#e8e6bd;fill-opacity:1;fill-rule:evenodd;stroke:#000000;stroke-width:1.06533384px;stroke-linecap:butt;stroke-linejoin:miter;stroke-opacity:1" />
          <path
             inkscape:export-ydpi="90"
             inkscape:export-xdpi="90"
             sodipodi:nodetypes="ccccc"
             inkscape:connector-curvature="0"
             id="path4159"
             d="m 287.59967,750.16633 c 61.13437,-18.47889 187.60096,-78.66448 224.46515,-7.63845 26.76823,-33.48531 58.62565,-64.96006 114.6205,-95.48053 -53.61879,-22.86785 -96.83109,-67.13512 -187.85026,-13.09448 -50.4118,38.73782 -105.38518,68.09539 -151.23539,116.21346 z"
             style="opacity:1;fill:#fffeff;fill-opacity:1;fill-rule:evenodd;stroke:#000000;stroke-width:1.06533384px;stroke-linecap:butt;stroke-linejoin:miter;stroke-opacity:1" />
          <path
             inkscape:export-ydpi="90"
             inkscape:export-xdpi="90"
             sodipodi:nodetypes="ccccc"
             inkscape:connector-curvature="0"
             id="path4179"
             d="M 292.89467,749.35642 56.501952,790.25118 227.23003,713.86285 322.53757,689.55748 Z"
             style="opacity:1;fill:#d6d2aa;fill-opacity:1;fill-rule:evenodd;stroke:#000000;stroke-width:1.06533384px;stroke-linecap:butt;stroke-linejoin:miter;stroke-opacity:1" />
          <path
             inkscape:export-ydpi="90"
             inkscape:export-xdpi="90"
             sodipodi:nodetypes="ccc"
             inkscape:connector-curvature="0"
             id="path4167"
             d="m 294.38042,681.58014 c 0.33202,-50.91574 -67.28534,22.47195 -130.00936,49.10427 39.6219,-10.23096 88.26486,-31.92683 130.00936,-49.10427 z"
             style="opacity:1;fill:#ceb384;fill-opacity:1;fill-rule:evenodd;stroke:#000000;stroke-width:1.06533384px;stroke-linecap:butt;stroke-linejoin:miter;stroke-opacity:1" />
          <path
             inkscape:export-ydpi="90"
             inkscape:export-xdpi="90"
             sodipodi:nodetypes="csccsc"
             inkscape:connector-curvature="0"
             id="path4165"
             d="m 152.16609,730.13882 c 44.6402,4.5354 88.70531,-58.74842 116.29453,-57.26184 15.63263,0.84231 42.73285,17.37973 25.91979,74.72113 l 35.02294,-101.48218 c -17.96531,-3.65172 -42.02495,-4.43676 -79.41606,24.96337 -73.42021,57.7293 -68.68874,56.48913 -97.8212,59.05952 z"
             style="opacity:1;fill:#e7ead8;fill-opacity:1;fill-rule:evenodd;stroke:#000000;stroke-width:1.06533384px;stroke-linecap:butt;stroke-linejoin:miter;stroke-opacity:1" />
          <path
             inkscape:export-ydpi="90"
             inkscape:export-xdpi="90"
             sodipodi:nodetypes="cccc"
             inkscape:connector-curvature="0"
             id="path4163"
             d="M 294.06956,748.14371 C 336.99601,647.91595 270.49224,615.49237 222.43175,621.5638 L 469.18421,497.16629 C 505.6281,583.2626 352.44111,664.48457 294.06956,748.14371 Z"
             style="opacity:1;fill:#f0eddb;fill-opacity:1;fill-rule:evenodd;stroke:#000000;stroke-width:1.06533384px;stroke-linecap:butt;stroke-linejoin:miter;stroke-opacity:1" />
          <path
             inkscape:export-ydpi="90"
             inkscape:export-xdpi="90"
             sodipodi:nodetypes="ccccc"
             inkscape:connector-curvature="0"
             id="path4161"
             d="m 293.31912,749.23492 c 35.76189,-58.20053 93.69899,-111.42651 56.24895,-186.05066 L 550.68459,502.62231 C 551.354,530.35834 519.4799,575.15818 443.4932,631.93026 356.19143,696.6902 325.56197,712.16861 293.31912,749.23492 Z"
             style="opacity:1;fill:#faf8ed;fill-opacity:1;fill-rule:evenodd;stroke:#000000;stroke-width:1.06533384px;stroke-linecap:butt;stroke-linejoin:miter;stroke-opacity:1" />
          <path
             inkscape:export-ydpi="90"
             inkscape:export-xdpi="90"
             inkscape:connector-curvature="0"
             id="path4177"
             d="M 282.0131,755.52922 56.501952,804.13998 55.751499,791.40858 291.01854,749.35642 Z"
             style="opacity:1;fill:#6d3129;fill-opacity:1;fill-rule:evenodd;stroke:#000000;stroke-width:1.06533384px;stroke-linecap:butt;stroke-linejoin:miter;stroke-opacity:1" />
          <g
             inkscape:export-ydpi="90"
             inkscape:export-xdpi="90"
             style="opacity:1"
             transform="matrix(1.0506343,0,0,1.080239,54.834576,306.05501)"
             id="g4266">
            <path
               style="fill:#c89571;fill-opacity:1;fill-rule:evenodd;stroke:#000000;stroke-width:1px;stroke-linecap:butt;stroke-linejoin:miter;stroke-opacity:1"
               d="m 260.36681,255.85691 -7.82868,3.53554 c 19.11478,17.17704 12.43417,37.22607 13.38452,47.22463 -1.87016,-5.55584 -6.95788,-11.11168 -12.12183,-16.66752 0.84857,8.63178 2.09529,17.46263 -2.27285,23.48605 -5.65037,-10.36442 -10.50988,-19.93798 -14.14213,-28.28428 -3.18357,2.84541 -0.26442,5.13602 -10.10153,8.5863 1.11905,-9.1904 -2.15925,-17.40361 -7.07107,-25.25381 -7.59941,5.95621 -16.90171,4.24941 -25.75889,4.54568 7.84691,-12.73559 -2.84116,-8.70144 -8.08122,-9.59644 -36.56607,-21.04485 -33.67175,-42.08969 -50.50762,-63.13454 12.24984,10.55996 23.94631,15.86303 34.85026,13.63706 -0.17525,-5.13149 -5.18957,-8.72734 -9.34391,-11.86929 1.56246,-0.89106 6.28463,0.24216 9.84899,2.0203 l -2.02031,-7.82868 c 4.06908,6.31995 11.00836,9.05217 17.67767,12.12183 -3.04987,-4.6175 -0.98738,-6.44643 -10.6066,-14.64721 l 5.05076,-0.50508 -7.07107,-9.09137 18.18275,11.11168 -12.12183,-18.68782 c 14.24128,12.95239 26.77907,22.86064 40.4061,43.18401 2.54134,0.63712 3.2356,-4.26699 4.54569,-7.3236 l 2.27284,8.83884 2.27284,-7.07108 c 4.16268,5.45851 4.74644,13.15384 3.53554,21.97083 8.71559,3.57485 15.86468,16.10334 27.02158,19.69797 z"
               id="path4243"
               inkscape:connector-curvature="0"
               sodipodi:nodetypes="ccccccccccccccccccccccccccc" />
            <path
               style="fill:#846352;fill-opacity:1;fill-rule:evenodd;stroke:#000000;stroke-width:1px;stroke-linecap:butt;stroke-linejoin:miter;stroke-opacity:1"
               d="m 167.93787,250.55362 c -4.30157,-3.42777 -0.16137,-20.47802 -1.76777,-19.1929 -2.69374,3.3778 -5.38748,5.74805 -8.08122,3.78807 2.67593,-6.23945 1.21138,-14.84489 -0.75761,-23.73858 l -7.82869,6.06092 2.02031,-10.60661 -4.79823,6.81853 c 2.60801,-16.26475 -1.31603,-20.28192 -3.78807,-27.02158 l -3.53553,12.87945 c 3.98337,-10.85847 -4.67307,-13.1229 -9.09137,-19.95052 l 5.80837,21.46575 c 11.31729,23.60604 21.84851,39.35136 31.81981,49.49747 z"
               id="path4254"
               inkscape:connector-curvature="0"
               sodipodi:nodetypes="cccccccccccc" />
            <path
               style="fill:none;fill-rule:evenodd;stroke:#000000;stroke-width:1px;stroke-linecap:butt;stroke-linejoin:miter;stroke-opacity:1"
               d="m 159.35157,230.60311 c 25.61019,-2.56138 91.45918,6.24797 110.35916,14.14213"
               id="path4256"
               inkscape:connector-curvature="0"
               sodipodi:nodetypes="cc" />
            <path
               style="fill:none;fill-rule:evenodd;stroke:#000000;stroke-width:1px;stroke-linecap:butt;stroke-linejoin:miter;stroke-opacity:1"
               d="m 236.3757,264.19068 c 2.3235,-16.77957 -8.35707,-24.0088 -17.1726,-30.30458 10.42279,6.07638 22.91359,12.86265 25.50635,26.76905"
               id="path4258"
               inkscape:connector-curvature="0"
               sodipodi:nodetypes="ccc" />
            <path
               style="fill:none;fill-rule:evenodd;stroke:#000000;stroke-width:1px;stroke-linecap:butt;stroke-linejoin:miter;stroke-opacity:1"
               d="m 194.7069,207.62214 c 11.45573,5.48431 20.97372,12.75731 23.73859,26.26396 1.71777,-12.65358 -8.58975,-20.15347 -15.65737,-29.04188"
               id="path4260"
               inkscape:connector-curvature="0"
               sodipodi:nodetypes="ccc" />
            <path
               style="fill:none;fill-rule:evenodd;stroke:#000000;stroke-width:1px;stroke-linecap:butt;stroke-linejoin:miter;stroke-opacity:1"
               d="m 200.76782,232.37087 c 6.31433,2.93783 11.84341,6.58952 10.85914,16.16244"
               id="path4262"
               inkscape:connector-curvature="0"
               sodipodi:nodetypes="cc" />
            <path
               style="fill:none;fill-rule:evenodd;stroke:#000000;stroke-width:1px;stroke-linecap:butt;stroke-linejoin:miter;stroke-opacity:1"
               d="m 196.47467,231.61326 c -2.74777,-8.50838 -8.58605,-7.74522 -13.13198,-10.85914"
               id="path4264"
               inkscape:connector-curvature="0"
               sodipodi:nodetypes="cc" />
          </g>
        </g>
      </g>
    </g>
    <g
       transform="rotate(22.268331,-239.52736,-464.10571)"
       style="font-style:normal;font-weight:normal;font-size:40px;line-height:125%;font-family:sans-serif;letter-spacing:0px;word-spacing:0px;fill:#000000;fill-opacity:1;stroke:none;stroke-width:1px;stroke-linecap:butt;stroke-linejoin:miter;stroke-opacity:1"
       id="flowRoot4184">
      <path
         d="m 1006.2123,385.51122 q -5.1251,7.1742 -9.90074,38.29088 -4.17102,27.50732 -4.06856,42.88287 0.18407,15.3748 4.99848,15.33107 0.89759,-0.008 2.5355,-0.66372 1.71952,-0.65631 2.61712,-0.66447 1.632,-0.0148 1.6208,1.18657 -0.01,0.88102 -1.2418,1.93334 -4.11253,3.56113 -12.55731,7.96249 -2.04962,1.05974 -3.51841,1.07308 -7.99674,0.0726 -5.34426,-39.67401 -19.59422,1.2992 -36.99342,3.45942 l -16.33607,19.52917 q 4.32921,-0.51984 3.26843,-0.5102 3.91677,-0.0356 5.9657,7.79421 0.55415,1.83694 0.54451,2.87814 -0.0178,1.92223 -1.73138,1.93779 -0.81599,0.007 -2.44428,-0.37823 -1.54668,-0.38637 -2.44426,-0.37822 -6.93596,0.063 -18.75372,7.45819 -3.52878,2.19437 -3.52878,2.19437 -0.6528,0.006 -2.43686,-1.17915 -3.81145,-2.52812 -5.32848,-6.11819 -0.95621,-2.47398 2.90194,-4.99169 5.08881,-3.24967 13.97196,-10.93852 8.88315,-7.68886 11.60707,-11.0772 -0.66693,-7.28175 -0.66397,-7.60212 0.20545,-4.56677 3.56362,-5.95873 2.94871,-1.22808 10.45955,-1.69674 20.46052,-24.37179 32.99551,-47.55039 -4.01764,2.11874 -14.41115,5.49667 -16.61359,5.43659 -22.91676,7.65618 -8.92324,3.20441 -8.99515,10.97339 -0.0148,1.60185 0.29378,3.5211 0.46218,2.95899 -1.57781,2.97752 -1.46879,0.0133 -2.10973,-1.26221 -4.40271,-9.16988 -5.18386,-12.92681 -0.70326,-3.35722 -0.70177,-3.5174 0.0259,-2.80324 2.74022,-5.15039 4.93377,-4.12919 18.66099,-6.25605 20.5912,-3.23032 35.50233,-9.85274 1.8115,-1.77835 1.97692,-2.02011 0.41318,-0.56435 0.836,-2.16991 0.50443,-1.6063 1.64682,-1.61668 1.87678,-0.017 5.59403,3.87339 1.21139,1.35045 1.19879,2.71202 -0.007,0.80093 -2.82553,5.5516 -6.13547,10.54698 -16.39167,25.53611 -11.4149,16.76155 -17.68095,23.78595 19.42065,-0.17643 30.44545,-1.23762 1.24618,-11.22334 5.27335,-32.00215 2.05253,-10.18955 4.10506,-20.37909 1.30405,-8.66111 11.94905,-12.76212 1.6379,-0.65556 2.6987,-0.6652 1.7951,-0.0163 1.7811,1.50545 -0.013,1.44167 -1.6661,3.69909 z"
         style="font-style:normal;font-variant:normal;font-weight:normal;font-stretch:normal;font-size:180px;font-family:Pristina;-inkscape-font-specification:Pristina;fill:#784421"
         id="path3413"
         inkscape:connector-curvature="0" />
      <path
         id="path3415"
         style="font-style:normal;font-variant:normal;font-weight:normal;font-stretch:normal;font-size:180px;font-family:Pristina;-inkscape-font-specification:Pristina;fill:#784421"
         d="m 1006.2123,385.51122 q -5.1251,7.1742 -9.90074,38.29088 -4.17102,27.50732 -4.06856,42.88287 0.18407,15.3748 4.99848,15.33107 0.89759,-0.008 2.5355,-0.66372 1.71952,-0.65631 2.61712,-0.66447 1.632,-0.0148 1.6208,1.18657 -0.01,0.88102 -1.2418,1.93334 -4.11253,3.56113 -12.55731,7.96249 -2.04962,1.05974 -3.51841,1.07308 -7.99674,0.0726 -5.34426,-39.67401 -19.59422,1.2992 -36.99342,3.45942 l -16.33607,19.52917 q 4.32921,-0.51984 3.26843,-0.5102 3.91677,-0.0356 5.9657,7.79421 0.55415,1.83694 0.54451,2.87814 -0.0178,1.92223 -1.73138,1.93779 -0.81599,0.007 -2.44428,-0.37823 -1.54668,-0.38637 -2.44426,-0.37822 -6.93596,0.063 -18.75372,7.45819 -3.52878,2.19437 -3.52878,2.19437 -0.6528,0.006 -2.43686,-1.17915 -3.81145,-2.52812 -5.32848,-6.11819 -0.95621,-2.47398 2.90194,-4.99169 5.08881,-3.24967 13.97196,-10.93852 8.88315,-7.68886 11.60707,-11.0772 -0.66693,-7.28175 -0.66397,-7.60212 0.20545,-4.56677 3.56362,-5.95873 2.94871,-1.22808 10.45955,-1.69674 20.46052,-24.37179 32.99551,-47.55039 -4.01764,2.11874 -14.41115,5.49667 -16.61359,5.43659 -22.91676,7.65618 -8.92324,3.20441 -8.99515,10.97339 -0.0148,1.60185 0.29378,3.5211 0.46218,2.95899 -1.57781,2.97752 -1.46879,0.0133 -2.10973,-1.26221 -4.40271,-9.16988 -5.18386,-12.92681 -0.70326,-3.35722 -0.70177,-3.5174 0.0259,-2.80324 2.74022,-5.15039 4.93377,-4.12919 18.66099,-6.25605 20.5912,-3.23032 35.50233,-9.85274 1.8115,-1.77835 1.97692,-2.02011 0.41318,-0.56435 0.836,-2.16991 0.50443,-1.6063 1.64682,-1.61668 1.87678,-0.017 5.59403,3.87339 1.21139,1.35045 1.19879,2.71202 -0.007,0.80093 -2.82553,5.5516 -6.13547,10.54698 -16.39167,25.53611 -11.4149,16.76155 -17.68095,23.78595 19.42065,-0.17643 30.44545,-1.23762 1.24618,-11.22334 5.27335,-32.00215 2.05253,-10.18955 4.10506,-20.37909 1.30405,-8.66111 11.94905,-12.76212 1.6379,-0.65556 2.6987,-0.6652 1.7951,-0.0163 1.7811,1.50545 -0.013,1.44167 -1.6661,3.69909 z"
         inkscape:connector-curvature="0" />
    </g>
  </g>
</svg>
